<?xml version="1.0" encoding="UTF-8"?><svg id="b" xmlns="http://www.w3.org/2000/svg" viewBox="0 0 399.26 355.43"><defs><style>.d{fill:#374a37;}.e{fill:#93c792;}</style></defs><g id="c"><path class="d" d="M199.9,232.17c-2.76,0-5-2.24-5-5v-29.3c0-32.29-26.27-58.56-58.56-58.56-2.76,0-5-2.24-5-5s2.24-5,5-5c37.8,0,68.56,30.75,68.56,68.56v29.3c0,2.76-2.24,5-5,5Z"/><path class="d" d="M199.9,192.77c-2.76,0-5-2.24-5-5,0-19.93,5.98-39.1,17.29-55.43,11.05-15.95,26.39-28.13,44.37-35.23,2.57-1.01,5.47.24,6.49,2.81s-.25,5.47-2.81,6.49c-33.61,13.28-55.33,45.21-55.33,81.36,0,2.76-2.24,5-5,5Z"/><path class="d" d="M6.16,243.72c-2.72,0-4.95-2.18-5-4.91-.05-2.76,2.15-5.04,4.91-5.09,17.24-.32,34.76-.4,51.71-.48,27.89-.13,56.72-.27,84.99-1.46,32.61-1.92,52.13-9.15,52.13-19.34,0-2.76,2.24-5,5-5s5,2.24,5,5c0,16.81-21.31,26.95-61.62,29.32-28.54,1.2-57.47,1.34-85.45,1.47-16.91.08-34.4.16-51.57.48-.03,0-.06,0-.09,0Z"/><path class="d" d="M12.44,278.29c-1.31,0-2.61-.51-3.59-1.52-1.92-1.98-1.87-5.15.12-7.07,25.69-24.87,45.35-33.66,80.93-36.21,2.76-.21,5.15,1.88,5.34,4.63.2,2.75-1.88,5.15-4.63,5.34-33.23,2.38-50.68,10.18-74.68,33.42-.97.94-2.22,1.41-3.48,1.41Z"/><path class="d" d="M38.34,309.78c-.2,0-.4-.01-.6-.04-2.74-.33-4.7-2.82-4.37-5.56,2.54-21.21,42.89-35.31,85.61-50.24,33.83-11.83,75.94-26.54,75.94-40.45,0-2.76,2.24-5,5-5s5,2.24,5,5c0,21.01-38.3,34.4-82.64,49.89-34.39,12.02-77.19,26.98-78.98,41.99-.3,2.54-2.46,4.41-4.96,4.41Z"/><path class="d" d="M92.45,337.5c-.11,0-.22,0-.33-.01-2.76-.18-4.85-2.56-4.67-5.31,1.1-17.08.13-31.08-.58-41.31-.81-11.64-1.21-17.48,1.69-21.05,1.74-2.14,4.89-2.46,7.03-.72,2.05,1.67,2.43,4.62.94,6.74-.56,1.8-.1,8.45.31,14.33.73,10.51,1.73,24.91.58,42.65-.17,2.65-2.37,4.68-4.98,4.68ZM96.32,276.13h0s0,0,0,0Z"/><path class="d" d="M374.51,275.47c-2.76,0-5-2.24-5-5,0-6.05-2.59-14.73-24.94-20.2-16.72-4.09-39.48-5.17-61.49-6.22-21.83-1.04-42.46-2.02-58.46-5.69-7.35-1.69-29.72-6.82-29.73-25.91,0-2.76,2.24-5,5-5h0c2.76,0,5,2.24,5,5,.01,17.88,40,19.78,78.66,21.62,22.49,1.07,45.74,2.17,63.39,6.49,9.99,2.44,17.44,5.71,22.77,9.99,6.5,5.22,9.8,11.93,9.8,19.93,0,2.76-2.24,5-5,5Z"/><path class="d" d="M359.36,313.87c-1.53,0-3.04-.7-4.02-2.03-4.1-5.54-7.77-10.81-11.31-15.9-16.84-24.16-29-41.62-60.81-50.8-2.65-.77-4.18-3.54-3.42-6.19.77-2.65,3.53-4.19,6.19-3.42,35.21,10.16,48.9,29.81,66.24,54.69,3.51,5.03,7.13,10.24,11.15,15.67,1.64,2.22,1.17,5.35-1.05,6.99-.89.66-1.94.98-2.97.98Z"/><path class="d" d="M321.37,312.9c-.71.84-1.64,1.4-2.63,1.64-1.5.37-3.14.05-4.42-1.01-7.88-6.6-14.51-12.03-21.92-16.78-2.21-1.43-7.57-3.39-13.79-5.66-5.22-1.91-11.38-4.16-17.95-6.91-3.29-1.38-6.69-2.88-10.13-4.53-22.34-10.73-46.24-27.61-53.29-56.02-.66-2.68.97-5.4,3.65-6.06,2.68-.66,5.4.97,6.06,3.65,5.63,22.69,23.87,37.11,42.79,46.93,3.49,1.81,6.99,3.46,10.45,4.98,7.83,3.45,15.41,6.21,21.85,8.56,7.35,2.69,12.66,4.63,15.78,6.67,7.87,5.03,15.04,10.9,22.92,17.5,2.12,1.77,2.4,4.92.63,7.04Z"/><path class="d" d="M134.64,337.24c-2.76,0-5-2.24-5-5,0-14.32,12.34-28.2,26.64-44.28,18.11-20.37,38.64-43.46,38.64-72.21,0-2.76,2.24-5,5-5s5,2.24,5,5c0,32.56-22.83,58.23-41.17,78.86-12.94,14.55-24.11,27.12-24.11,37.63,0,2.76-2.24,5-5,5Z"/><path class="d" d="M259.8,341.97c-.61.11-1.22.1-1.8-.02-1.98-.38-3.61-1.95-3.98-4.05-1.3-7.57-2.52-14.99-3.08-22.63-.55-6.71-.44-13.61-.34-20.28.08-5.07.16-10.32-.07-15.34v-.11c-.14-3.81-.43-7.62-.79-11.39,3.49,1.81,6.99,3.46,10.45,4.98.14,1.99.26,3.99.33,6,.08,1.68.12,3.36.14,5.05.05,3.67-.01,7.36-.06,10.96-.1,6.43-.2,13.09.31,19.36.53,7.23,1.7,14.39,2.97,21.69.47,2.72-1.35,5.31-4.08,5.78Z"/><path class="d" d="M208.68,355.43c-2.03,0-3.94-1.25-4.69-3.26-.64-1.73-1.25-4.64-2.16-9.03-3.37-16.17-11.25-54.04-31.21-61.34-2.59-.95-3.93-3.82-2.98-6.41.95-2.59,3.82-3.93,6.41-2.98,25.18,9.21,33.54,49.38,37.57,68.69.7,3.37,1.37,6.56,1.75,7.58.96,2.59-.36,5.47-2.94,6.43-.57.21-1.16.31-1.74.31Z"/><path class="e" d="M145.52,179.17c-.67-1.95.14-4.11,1.93-5.13,4.95-2.82,11.07-3.49,16.81-1.32s9.89,6.71,11.75,12.1c.67,1.95-.14,4.11-1.93,5.13-4.95,2.82-11.07,3.49-16.81,1.32s-9.9-6.71-11.75-12.1Z"/><path class="e" d="M152.56,159.05c-.84-.78-1.01-2.05-.4-3.02,1.68-2.68,4.51-4.61,7.89-5.06,3.38-.44,6.61.69,8.93,2.84.84.78,1.01,2.05.4,3.02-1.69,2.68-4.51,4.61-7.89,5.06-3.38.45-6.61-.69-8.93-2.84Z"/><path class="e" d="M216.05,115.37c-1.14.08-2.19-.66-2.48-1.77-.81-3.06-.31-6.44,1.67-9.22,1.98-2.78,5.01-4.36,8.16-4.6,1.14-.08,2.19.66,2.48,1.77.81,3.06.3,6.44-1.67,9.22s-5.01,4.36-8.17,4.6Z"/><path class="e" d="M247.83,123.88c2.27-.22,4.38,1.22,5.01,3.41,1.75,6.05.88,12.81-2.94,18.43-3.82,5.61-9.78,8.9-16.06,9.5-2.27.22-4.38-1.22-5.02-3.41-1.74-6.05-.88-12.81,2.94-18.42s9.79-8.9,16.06-9.5Z"/><path class="e" d="M252.42,164.03c1.97.65,3.2,2.63,2.92,4.68-.77,5.68-3.97,11-9.22,14.27s-11.42,3.82-16.87,2.01c-1.97-.65-3.2-2.63-2.92-4.69.77-5.69,3.97-11,9.22-14.27,5.25-3.28,11.43-3.82,16.87-2.01Z"/><path class="e" d="M273.04,209.52c-.14,2.1-1.76,3.81-3.85,4.06-5.77.69-11.8-1.1-16.35-5.42s-6.65-10.24-6.26-16.04c.14-2.1,1.76-3.81,3.85-4.06,5.77-.69,11.8,1.1,16.34,5.42,4.55,4.32,6.65,10.24,6.26,16.04Z"/><path class="e" d="M90.83,182.68c-1.62-2.03-1.56-4.93.14-6.89,4.68-5.42,11.66-8.79,19.38-8.64,7.72.15,14.55,3.8,19.02,9.4,1.62,2.03,1.56,4.93-.14,6.9-4.69,5.42-11.66,8.79-19.38,8.64-7.73-.15-14.56-3.8-19.02-9.4Z"/><path class="e" d="M107.76,145.15c-.67-2.32.42-4.79,2.57-5.87,5.95-2.99,13.14-3.41,19.73-.52s11.15,8.44,12.99,14.85c.67,2.32-.42,4.79-2.57,5.88-5.96,2.99-13.15,3.4-19.72.52-6.58-2.88-11.16-8.45-13-14.85Z"/><path class="e" d="M184.95,97.87c1.44-1.98,4.1-2.66,6.31-1.61,6.11,2.9,10.93,8.4,12.74,15.46s.2,14.2-3.77,19.67c-1.44,1.98-4.1,2.66-6.31,1.61-6.11-2.9-10.93-8.4-12.73-15.46s-.2-14.2,3.77-19.67Z"/><path class="e" d="M280.2,126.31c2.18.29,3.86,2.1,3.98,4.3.33,6.08-1.95,12.25-6.76,16.72s-11.14,6.26-17.18,5.46c-2.19-.29-3.86-2.1-3.98-4.3-.33-6.08,1.95-12.25,6.76-16.71s11.15-6.26,17.18-5.47Z"/><path class="e" d="M302.2,159.22c1.99,1.15,2.89,3.56,2.14,5.74-2.1,6-6.75,11.06-13.18,13.45s-13.25,1.61-18.77-1.56c-2-1.15-2.9-3.56-2.14-5.74,2.1-6,6.76-11.06,13.18-13.45,6.43-2.39,13.26-1.61,18.77,1.56Z"/><path class="e" d="M299.49,204.02c.09,1.01-.55,1.95-1.53,2.23-2.7.77-5.72.36-8.22-1.35s-3.95-4.39-4.2-7.19c-.09-1.01.55-1.95,1.53-2.23,2.71-.76,5.72-.36,8.21,1.35s3.95,4.39,4.2,7.19Z"/><path class="e" d="M45.95,203.1c-2.34-1.16-3.52-3.82-2.82-6.33,1.95-6.93,6.85-12.98,13.95-16.13s14.86-2.75,21.32.44c2.34,1.16,3.52,3.82,2.82,6.33-1.95,6.93-6.86,12.97-13.95,16.13-7.09,3.16-14.87,2.76-21.32-.44Z"/><path class="e" d="M46.3,145.33c-.6-2.55.71-5.18,3.11-6.24,6.63-2.93,14.47-2.99,21.46.5s11.66,9.78,13.31,16.84c.6,2.56-.71,5.19-3.11,6.25-6.63,2.92-14.47,2.98-21.46-.5s-11.66-9.78-13.31-16.84Z"/><path class="e" d="M65.25,113.84c.04-2.04,1.53-3.77,3.55-4.1,5.56-.93,11.47.53,16.07,4.51,4.59,3.97,6.9,9.61,6.79,15.25-.04,2.04-1.54,3.77-3.55,4.1-5.56.93-11.47-.54-16.07-4.51-4.6-3.97-6.9-9.61-6.79-15.25Z"/><path class="e" d="M92.72,91.29c.63-2.46,2.93-4.13,5.47-3.97,7.01.45,13.76,3.91,18.21,10.04,4.44,6.12,5.63,13.62,3.9,20.42-.63,2.46-2.93,4.14-5.47,3.97-7.01-.46-13.76-3.91-18.21-10.04s-5.64-13.63-3.9-20.43Z"/><path class="e" d="M116.51,72.77c.36-1.92,2.05-3.31,4-3.31,5.39,0,10.74,2.32,14.45,6.8s4.99,10.16,3.99,15.46c-.36,1.92-2.05,3.31-4,3.31-5.39,0-10.74-2.32-14.45-6.8s-4.99-10.17-3.99-15.46Z"/><path class="e" d="M149.56,105.16c.36-1.92,2.05-3.31,4-3.31,5.39,0,10.74,2.32,14.45,6.8s4.99,10.16,3.99,15.46c-.36,1.92-2.05,3.31-4,3.31-5.39,0-10.74-2.32-14.45-6.8s-4.99-10.17-3.99-15.46Z"/><path class="e" d="M145.44,50.56c1.07-2.12,3.51-3.18,5.79-2.52,6.3,1.83,11.77,6.34,14.59,12.83s2.4,13.56-.56,19.41c-1.07,2.12-3.51,3.18-5.79,2.52-6.3-1.83-11.77-6.34-14.59-12.82s-2.4-13.57.56-19.42Z"/><path class="e" d="M181.37,51.48c1.2-1.78,3.51-2.46,5.49-1.61,5.46,2.36,9.86,7.04,11.66,13.19,1.8,6.15.61,12.46-2.71,17.39-1.2,1.78-3.52,2.46-5.49,1.61-5.46-2.36-9.86-7.04-11.66-13.19-1.8-6.15-.62-12.47,2.71-17.39Z"/><path class="e" d="M218.07,57.98c1.91-1.07,4.31-.63,5.72,1.05,3.88,4.63,5.74,10.89,4.57,17.3-1.17,6.4-5.13,11.59-10.4,14.55-1.91,1.07-4.32.63-5.72-1.05-3.88-4.63-5.74-10.89-4.57-17.29s5.13-11.6,10.4-14.56Z"/><path class="e" d="M259.25,62.89c1.88-.22,3.66.94,4.22,2.75,1.55,5,.95,10.62-2.13,15.35-3.08,4.73-7.98,7.55-13.17,8.16-1.88.22-3.66-.94-4.22-2.75-1.55-5-.95-10.62,2.13-15.35s7.98-7.56,13.18-8.16Z"/><path class="e" d="M287.94,79.27c2.03-.01,3.79,1.43,4.18,3.43,1.07,5.51-.23,11.45-4.07,16.13s-9.39,7.13-15.01,7.17c-2.03.01-3.8-1.43-4.19-3.43-1.07-5.52.23-11.45,4.07-16.13s9.4-7.13,15.02-7.17Z"/><path class="e" d="M322.85,101.38c1.95.77,3.08,2.83,2.68,4.89-1.1,5.69-4.63,10.86-10.11,13.87-5.48,3-11.74,3.2-17.13,1.07-1.95-.77-3.08-2.83-2.68-4.89,1.1-5.69,4.64-10.86,10.11-13.87,5.48-3,11.74-3.2,17.13-1.07Z"/><path class="e" d="M338.54,129.2c2.1.91,3.25,3.2,2.74,5.42-1.41,6.16-5.44,11.66-11.52,14.73-6.07,3.07-12.9,3.05-18.69.54-2.1-.91-3.25-3.2-2.74-5.43,1.41-6.16,5.44-11.66,11.52-14.73,6.08-3.07,12.9-3.06,18.69-.54Z"/><path class="e" d="M354.93,166.53c1.23,1.54,1.18,3.74-.1,5.23-3.55,4.11-8.84,6.67-14.7,6.56s-11.04-2.88-14.43-7.13c-1.23-1.54-1.18-3.74.1-5.23,3.55-4.11,8.84-6.67,14.7-6.56s11.05,2.88,14.43,7.13Z"/><path class="e" d="M341.54,210.27c.13,2.32-1.41,4.41-3.66,4.97-6.22,1.55-13.06.41-18.63-3.69-5.56-4.1-8.68-10.29-9.05-16.69-.13-2.32,1.41-4.41,3.66-4.97,6.22-1.54,13.06-.41,18.63,3.69,5.57,4.1,8.68,10.29,9.05,16.7Z"/><path class="e" d="M3.21,206.62c-2.26-.88-3.57-3.25-3.12-5.64,1.24-6.58,5.3-12.57,11.61-16.07,6.31-3.5,13.54-3.75,19.78-1.32,2.26.88,3.57,3.26,3.12,5.64-1.24,6.58-5.3,12.57-11.61,16.07-6.32,3.5-13.55,3.76-19.78,1.32Z"/><path class="e" d="M8.62,156.48c-.61-1.86.2-3.91,1.92-4.85,4.75-2.6,10.58-3.15,16.01-1s9.31,6.54,10.99,11.69c.61,1.86-.2,3.91-1.92,4.85-4.75,2.6-10.58,3.15-16.01,1s-9.31-6.54-10.99-11.69Z"/><path class="e" d="M4.77,115.49c-.53-2.49.79-5.02,3.15-6.01,6.5-2.72,14.12-2.62,20.85.91,6.73,3.53,11.14,9.73,12.61,16.63.53,2.5-.79,5.03-3.15,6.01-6.51,2.71-14.12,2.62-20.85-.91-6.73-3.53-11.15-9.74-12.61-16.63Z"/><path class="e" d="M36.13,92.86c-.05-1.96,1.31-3.69,3.23-4.09,5.3-1.13,11.05.02,15.64,3.65s7.04,8.94,7.17,14.36c.05,1.96-1.31,3.69-3.23,4.1-5.3,1.13-11.05-.03-15.63-3.65s-7.04-8.95-7.17-14.36Z"/><path class="e" d="M46.82,55.76c.62-2.51,2.95-4.22,5.52-4.07,7.12.4,14.01,3.86,18.58,10.05s5.83,13.79,4.12,20.71c-.62,2.51-2.95,4.22-5.53,4.08-7.12-.41-14.01-3.86-18.58-10.05s-5.84-13.79-4.12-20.72Z"/><path class="e" d="M83.04,52.41c.45-1.91,2.2-3.24,4.16-3.16,5.43.24,10.71,2.8,14.25,7.46,3.54,4.66,4.58,10.44,3.35,15.73-.45,1.92-2.2,3.25-4.17,3.16-5.43-.24-10.71-2.8-14.25-7.46-3.54-4.67-4.58-10.44-3.35-15.73Z"/><path class="e" d="M102.32,19.88c1.08-2.36,3.7-3.62,6.22-3,6.96,1.73,13.13,6.43,16.49,13.39s3.2,14.71.22,21.24c-1.08,2.36-3.7,3.63-6.22,3-6.96-1.73-13.13-6.43-16.49-13.39-3.36-6.97-3.2-14.72-.22-21.24Z"/><path class="e" d="M132.13,3.83c.99-2.26,3.46-3.5,5.86-2.94,6.63,1.53,12.56,5.9,15.85,12.46s3.26,13.92.53,20.16c-.99,2.26-3.46,3.5-5.86,2.94-6.63-1.54-12.56-5.9-15.85-12.46s-3.26-13.92-.53-20.16Z"/><path class="e" d="M172.54,3.31c1.65-1.23,3.95-1.11,5.47.28,4.18,3.85,6.68,9.47,6.36,15.6-.32,6.12-3.38,11.45-7.94,14.85-1.65,1.23-3.95,1.11-5.47-.28-4.18-3.86-6.68-9.47-6.36-15.59s3.39-11.46,7.95-14.85Z"/><path class="e" d="M204.41,7.42c2.23-1.13,4.96-.5,6.49,1.48,4.2,5.49,6.02,12.74,4.35,20.01s-6.45,13-12.62,16.12c-2.23,1.13-4.97.5-6.49-1.49-4.2-5.49-6.01-12.74-4.35-20.01s6.45-13.01,12.62-16.12Z"/><path class="e" d="M234.57,1.1c1.84-1.49,4.49-1.47,6.3.06,4.99,4.23,8.14,10.57,8.07,17.62s-3.34,13.32-8.41,17.45c-1.84,1.5-4.49,1.47-6.3-.06-4.99-4.23-8.13-10.57-8.06-17.62s3.34-13.33,8.42-17.46Z"/><path class="e" d="M269.96,21.7c2.3-.41,4.58.88,5.4,3.07,2.29,6.04,1.96,13.02-1.48,19.07-3.44,6.05-9.26,9.9-15.62,11.03-2.3.41-4.58-.88-5.41-3.07-2.28-6.04-1.96-13.02,1.48-19.07s9.27-9.91,15.62-11.04Z"/><path class="e" d="M301.33,26.29c2.33-.36,4.6,1,5.38,3.22,2.17,6.14,1.68,13.17-1.92,19.2s-9.57,9.78-16.01,10.77c-2.33.36-4.6-1-5.38-3.22-2.17-6.15-1.68-13.17,1.92-19.2s9.57-9.78,16.01-10.78Z"/><path class="e" d="M332.06,47.04c2.45.47,4.22,2.63,4.2,5.12-.04,6.89-3.03,13.7-8.77,18.41s-13.01,6.31-19.77,5.01c-2.45-.47-4.22-2.63-4.21-5.13.04-6.89,3.03-13.7,8.77-18.41s13.01-6.31,19.77-5.01Z"/><path class="e" d="M358.73,64.61c2.52.11,4.62,2.01,4.98,4.51,1,6.91-.98,14.19-6.03,19.77s-12.09,8.27-19.07,7.98c-2.53-.11-4.62-2.01-4.98-4.51-.99-6.91.98-14.19,6.03-19.77,5.05-5.58,12.1-8.28,19.07-7.98Z"/><path class="e" d="M374.78,96.94c1.91.42,3.25,2.15,3.18,4.09-.17,5.38-2.66,10.66-7.25,14.22s-10.32,4.66-15.58,3.5c-1.91-.42-3.25-2.15-3.19-4.1.17-5.39,2.66-10.66,7.25-14.22s10.32-4.67,15.59-3.5Z"/><path class="e" d="M396.23,129.71c1.72,1.44,2.18,3.91,1.09,5.87-3.02,5.41-8.35,9.49-14.93,10.71s-13-.68-17.76-4.65c-1.72-1.44-2.18-3.91-1.09-5.87,3.03-5.41,8.35-9.49,14.92-10.7,6.58-1.22,13.01.68,17.77,4.65Z"/><path class="e" d="M397.62,163.07c1.59,1.21,2.1,3.38,1.21,5.17-2.47,4.93-7.03,8.77-12.82,10.12s-11.58-.07-15.98-3.41c-1.59-1.21-2.1-3.39-1.21-5.17,2.47-4.93,7.03-8.77,12.82-10.12,5.79-1.35,11.59.07,15.98,3.41Z"/><path class="e" d="M394.58,207.81c.45,2.34-.84,4.67-3.05,5.54-6.12,2.41-13.22,2.17-19.43-1.25-6.21-3.42-10.2-9.29-11.44-15.75-.45-2.34.84-4.67,3.05-5.55,6.12-2.41,13.22-2.17,19.43,1.25,6.21,3.42,10.21,9.3,11.44,15.75Z"/></g></svg>