<?xml version="1.0" encoding="UTF-8"?><svg id="b" xmlns="http://www.w3.org/2000/svg" xmlns:xlink="http://www.w3.org/1999/xlink" viewBox="0 0 399.56 382.63"><defs><style>.e{mask:url(#d);}.f{fill:#374a37;}.g{fill:#fff;}.h{fill:#93c792;}</style><mask id="d" x="-18.57" y="-13.1" width="428.47" height="395.73" maskUnits="userSpaceOnUse"><path class="g" d="M393.89,194.9c-.53,0-1.06.03-1.59.09.14-2.79.24-5.6.26-8.42.25.01.49.04.74.04,8.37,0,16.39-7.36,16-16-.39-8.67-7.03-16-16-16-1.04,0-2.08.11-3.1.33-.16-1-.32-2-.49-3,5.57-2.57,9.8-8.19,9.51-14.52-.39-8.67-7.03-16-16-16-.48,0-.96.03-1.44.08-.5-1.43-1.01-2.85-1.55-4.26.2,0,.4.03.61.03,8.37,0,16.39-7.36,16-16-.39-8.67-7.03-16-16-16-4.84,0-9.55,2.47-12.6,6.22-.55-.99-1.09-1.98-1.66-2.95,5.57-2.57,9.8-8.19,9.51-14.52-.39-8.67-7.03-16-16-16-4.23,0-8.37,1.89-11.38,4.86-1.64-1.99-3.32-3.96-5.04-5.88,4.86-2.81,8.38-8.01,8.12-13.8-.39-8.67-7.03-16-16-16-5.83,0-11.48,3.58-14.25,8.66C288.46,8.91,246.23-7.25,200.22-7.25c-14.68,0-28.97,1.66-42.7,4.78-2.28-6.12-7.86-10.63-14.89-10.63-8.37,0-16.39,7.36-16,16,.06,1.44.32,2.83.71,4.17-1.03.42-2.06.84-3.09,1.28,0-.24.02-.47.01-.71-.39-8.67-7.03-16-16-16-8.37,0-16.39,7.36-16,16,.25,5.57,3.08,10.57,7.45,13.44-13.14,8.07-25.24,17.68-36.05,28.57-2.42-5.81-7.87-10.02-14.66-10.02-8.37,0-16.39,7.36-16,16,.33,7.4,5.23,13.82,12.24,15.53-7.37,10.01-13.79,20.75-19.14,32.11-1.59-1.25-3.4-2.21-5.42-2.72-2-.51-3.99-1.01-5.99-1.52-4.08-1.03-8.67-.53-12.33,1.61-3.32,1.94-6.48,5.75-7.35,9.56-.93,4.1-.73,8.69,1.61,12.33,2.23,3.47,5.47,6.32,9.56,7.35,2,.51,3.99,1.01,5.99,1.52,1.03.26,2.08.42,3.15.48-.38,1.33-.75,2.67-1.11,4.02-7.28,1.39-13.57,8.04-13.22,15.72.26,5.74,3.27,10.88,7.87,13.71-.53,5.21-.85,10.49-.95,15.82-2.75-2.5-6.36-4.05-10.47-4.05-8.37,0-16.39,7.36-16,16,.39,8.67,7.03,16,16,16,4.23,0,8.36-1.88,11.37-4.85,9.62,97.24,91.64,173.19,191.41,173.19,92.26,0,169.33-64.96,188.01-151.63,1.74.68,3.63,1.06,5.65,1.06,8.37,0,16.39-7.36,16-16-.39-8.67-7.03-16-16-16Z"/></mask></defs><g id="c"><g class="e"><path class="f" d="M200.2,230.17c-1.65,0-3-1.35-3-3v-29.3c0-33.39-27.17-60.56-60.56-60.56-1.65,0-3-1.35-3-3s1.35-3,3-3c36.7,0,66.56,29.86,66.56,66.56v29.3c0,1.65-1.35,3-3,3Z"/><path class="f" d="M200.2,190.77c-1.65,0-3-1.35-3-3,0-19.53,5.86-38.3,16.93-54.29,10.82-15.62,25.85-27.55,43.46-34.51.35-.14.72-.21,1.1-.21,1.24,0,2.34.75,2.79,1.9.61,1.54-.15,3.29-1.69,3.89-34.38,13.58-56.59,46.25-56.59,83.22,0,1.65-1.35,3-3,3Z"/><path class="f" d="M6.46,241.72c-1.62,0-2.97-1.32-3-2.94-.01-.8.28-1.56.84-2.14s1.3-.9,2.11-.92c17.24-.32,34.75-.4,51.68-.48,27.9-.13,56.75-.27,85.06-1.46,34.36-2.02,54.04-9.8,54.04-21.34,0-1.65,1.35-3,3-3s3,1.35,3,3c0,10.86-10.36,24.42-59.74,27.33-28.45,1.19-57.34,1.33-85.29,1.47h-.23c-16.86.08-34.3.17-51.42.48h-.06Z"/><path class="f" d="M12.74,276.29c-.82,0-1.59-.32-2.16-.91-1.15-1.19-1.12-3.09.07-4.24,25.29-24.48,44.65-33.14,79.68-35.65.09,0,.16,0,.24,0,1.55,0,2.86,1.22,2.97,2.79.12,1.65-1.13,3.09-2.78,3.21-33.79,2.42-51.53,10.35-75.93,33.98-.56.54-1.3.84-2.09.84Z"/><path class="f" d="M38.64,307.78c-.12,0-.25,0-.37-.02-1.63-.2-2.81-1.69-2.62-3.33,2.39-19.97,42.17-33.87,84.29-48.59,43.79-15.3,77.28-28.14,77.28-42.34,0-1.65,1.35-3,3-3s3,1.35,3,3c0,19.59-37.68,32.76-81.3,48.01-36.73,12.84-78.37,27.39-80.31,43.64-.18,1.51-1.46,2.64-2.97,2.64Z"/><path class="f" d="M92.85,352.98c-.81-.05-1.54-.41-2.07-1.01-.53-.6-.79-1.37-.74-2.17,1.11-17.21.14-51.33-.58-61.73-.77-11.11-1.16-16.69,1.25-19.64.57-.7,1.42-1.11,2.33-1.11.7,0,1.35.23,1.89.67,1.21.99,1.46,2.76.56,4.04l-.18.26-.09.3c-.62,2.01-.32,7.26.22,15.05.73,10.55,1.71,45.1.58,62.55-.1,1.57-1.41,2.81-2.99,2.81-.06,0-.12,0-.19,0Z"/><path class="f" d="M374.81,273.47c-1.65,0-3-1.35-3-3,0-10.69-8.41-17.73-26.47-22.14-16.91-4.13-39.77-5.22-61.87-6.27-21.75-1.04-42.28-2.01-58.1-5.64-28.17-6.46-28.18-19.64-28.18-23.97,0-.8.31-1.56.88-2.12.57-.57,1.32-.88,2.12-.88,1.66,0,3,1.34,3,3,.01,19.79,39.14,21.65,80.57,23.62,22.39,1.06,45.54,2.17,63.01,6.44,9.7,2.37,16.89,5.51,21.99,9.6,6.01,4.82,9.05,11,9.05,18.37,0,1.65-1.35,3-3,3Z"/><path class="f" d="M359.65,311.87c-.96,0-1.84-.44-2.42-1.22-4.08-5.52-7.74-10.77-11.28-15.85-17.08-24.5-29.41-42.21-61.89-51.58-.77-.22-1.41-.73-1.79-1.43-.39-.7-.48-1.51-.26-2.28.37-1.28,1.55-2.17,2.88-2.17.28,0,.56.04.84.12,34.53,9.96,48.04,29.36,65.15,53.91,3.54,5.07,7.16,10.28,11.18,15.72.98,1.33.7,3.21-.63,4.2-.52.38-1.13.59-1.78.59Z"/><path class="f" d="M335.41,327.51c-.71,0-1.38-.24-1.93-.7-21.23-17.78-34.59-28.46-39.71-31.74-2.41-1.56-7.86-3.55-14.18-5.86l-.19-.07c-5.26-1.93-11.23-4.11-17.68-6.81-3.64-1.53-6.92-3-10.04-4.49-29.52-14.18-46.6-32.07-52.21-54.7-.4-1.61.58-3.24,2.19-3.64.24-.06.48-.09.72-.09,1.39,0,2.58.94,2.91,2.28,4.88,19.69,19.22,35.46,43.81,48.23,3.33,1.73,6.79,3.38,10.57,5.04,7.82,3.45,15.25,6.16,21.81,8.55l.26.09c7.18,2.63,12.36,4.53,15.28,6.43,3.67,2.35,13.63,9.82,40.33,32.18,1.27,1.06,1.44,2.96.38,4.23-.41.48-.97.83-1.57.98-.25.06-.5.09-.74.09Z"/><path class="f" d="M114.96,368.12c-1.65,0-3-1.35-3-3,0-5.82,6.43-19.25,17.63-36.85,9.2-14.45,20.91-30.48,28.48-38.98,18.35-20.64,39.15-44.03,39.15-73.54,0-1.65,1.35-3,3-3s3,1.35,3,3c0,31.8-22.55,57.16-40.67,77.53-12.49,14.05-44.59,60.46-44.59,71.84,0,1.65-1.35,3-3,3Z"/><path class="f" d="M262.88,370.46c-.18,0-.37-.02-.55-.06-1.24-.24-2.2-1.22-2.41-2.44-1.3-7.55-6.14-45.24-6.69-52.84-.54-6.58-.44-13.37-.34-19.94v-.16c.08-4.84.17-10.33-.07-15.46v-.02c-.09-2.5-.25-5.13-.48-7.98,2,.98,4.06,1.95,6.23,2.91.12,1.78.2,3.3.25,4.73.07,1.51.12,3.14.14,5,.05,3.38,0,6.81-.05,10.13v.78c-.11,6.46-.22,13.14.31,19.55.54,7.43,5.4,45.18,6.63,52.29.14.79-.04,1.58-.5,2.24-.46.66-1.15,1.09-1.94,1.23-.18.03-.35.05-.51.05Z"/><path class="f" d="M216.91,382.63c-1.25,0-2.38-.79-2.81-1.96-.59-1.59-1.18-4.43-2.08-8.73-1.78-8.57-18.06-83.84-40.41-92.02-.75-.28-1.35-.83-1.69-1.55-.34-.73-.37-1.54-.1-2.29.43-1.18,1.56-1.97,2.82-1.97.35,0,.7.06,1.03.18,10.02,3.67,20.22,18.87,29.49,43.97,7.88,21.33,12.93,43.78,14.73,52.45.87,4.17,1.42,6.78,1.83,7.87.58,1.55-.22,3.28-1.77,3.86-.34.13-.69.19-1.04.19Z"/><path class="h" d="M145.82,179.17c-.67-1.95.14-4.11,1.93-5.13,4.95-2.82,11.07-3.49,16.81-1.32,5.74,2.17,9.89,6.71,11.75,12.1.67,1.95-.14,4.11-1.93,5.13-4.95,2.82-11.07,3.49-16.81,1.32s-9.9-6.71-11.75-12.1Z"/><path class="h" d="M152.86,159.05c-.84-.78-1.01-2.05-.4-3.02,1.68-2.68,4.51-4.61,7.89-5.06,3.38-.44,6.61.69,8.93,2.84.84.78,1.01,2.05.4,3.02-1.69,2.68-4.51,4.61-7.89,5.06-3.38.45-6.61-.69-8.93-2.84Z"/><path class="h" d="M216.35,115.37c-1.14.08-2.19-.66-2.48-1.77-.81-3.06-.31-6.44,1.67-9.22,1.98-2.78,5.01-4.36,8.16-4.6,1.14-.08,2.19.66,2.48,1.77.81,3.06.3,6.44-1.67,9.22-1.98,2.78-5.01,4.36-8.17,4.6Z"/><path class="h" d="M248.13,123.88c2.27-.22,4.38,1.22,5.01,3.41,1.75,6.05.88,12.81-2.94,18.43s-9.78,8.9-16.06,9.5c-2.27.22-4.38-1.22-5.02-3.41-1.74-6.05-.88-12.81,2.94-18.42s9.79-8.9,16.06-9.5Z"/><path class="h" d="M252.72,164.03c1.97.65,3.2,2.63,2.92,4.68-.77,5.68-3.97,11-9.22,14.27s-11.42,3.82-16.87,2.01c-1.97-.65-3.2-2.63-2.92-4.69.77-5.69,3.97-11,9.22-14.27,5.25-3.28,11.43-3.82,16.87-2.01Z"/><path class="h" d="M273.34,209.52c-.14,2.1-1.76,3.81-3.85,4.06-5.77.69-11.8-1.1-16.35-5.42s-6.65-10.24-6.26-16.04c.14-2.1,1.76-3.81,3.85-4.06,5.77-.69,11.8,1.1,16.34,5.42s6.65,10.24,6.26,16.04Z"/><path class="h" d="M112.43,189.5c.92-2.42,3.45-3.85,6-3.39,7.05,1.27,13.5,5.56,17.3,12.29,3.8,6.72,4.14,14.46,1.59,21.16-.92,2.42-3.45,3.85-6.01,3.39-7.05-1.27-13.5-5.56-17.3-12.29s-4.14-14.47-1.59-21.16Z"/><path class="h" d="M108.06,145.15c-.67-2.32.42-4.79,2.57-5.87,5.95-2.99,13.14-3.41,19.73-.52s11.15,8.44,12.99,14.85c.67,2.32-.42,4.79-2.57,5.88-5.96,2.99-13.15,3.4-19.72.52-6.58-2.88-11.16-8.45-13-14.85Z"/><path class="h" d="M185.25,97.87c1.44-1.98,4.1-2.66,6.31-1.61,6.11,2.9,10.93,8.4,12.74,15.46,1.8,7.06.2,14.2-3.77,19.67-1.44,1.98-4.1,2.66-6.31,1.61-6.11-2.9-10.93-8.4-12.73-15.46-1.8-7.07-.2-14.2,3.77-19.67Z"/><path class="h" d="M280.5,126.31c2.18.29,3.86,2.1,3.98,4.3.33,6.08-1.95,12.25-6.76,16.72-4.81,4.46-11.14,6.26-17.18,5.46-2.19-.29-3.86-2.1-3.98-4.3-.33-6.08,1.95-12.25,6.76-16.71,4.82-4.46,11.15-6.26,17.18-5.47Z"/><path class="h" d="M302.49,159.22c1.99,1.15,2.89,3.56,2.14,5.74-2.1,6-6.75,11.06-13.18,13.45-6.42,2.39-13.25,1.61-18.77-1.56-2-1.15-2.9-3.56-2.14-5.74,2.1-6,6.76-11.06,13.18-13.45,6.43-2.39,13.26-1.61,18.77,1.56Z"/><path class="h" d="M299.78,204.02c.09,1.01-.55,1.95-1.53,2.23-2.7.77-5.72.36-8.22-1.35-2.5-1.72-3.95-4.39-4.2-7.19-.09-1.01.55-1.95,1.53-2.23,2.71-.76,5.72-.36,8.21,1.35,2.5,1.72,3.95,4.39,4.2,7.19Z"/><path class="h" d="M59.65,190.1c.17-2.6,2.17-4.72,4.75-5.04,7.15-.88,14.61,1.32,20.26,6.64,5.65,5.32,8.27,12.65,7.82,19.84-.16,2.6-2.17,4.73-4.76,5.04-7.15.88-14.62-1.32-20.26-6.64-5.65-5.33-8.28-12.65-7.82-19.84Z"/><path class="h" d="M59.81,153.85c-.6-2.55.71-5.18,3.11-6.24,6.63-2.93,14.47-2.99,21.46.5,6.99,3.49,11.66,9.78,13.31,16.84.6,2.56-.71,5.19-3.11,6.25-6.63,2.92-14.47,2.98-21.46-.5-7-3.49-11.66-9.78-13.31-16.84Z"/><path class="h" d="M65.55,113.84c.04-2.04,1.53-3.77,3.55-4.1,5.56-.93,11.47.53,16.07,4.51,4.59,3.97,6.9,9.61,6.79,15.25-.04,2.04-1.54,3.77-3.55,4.1-5.56.93-11.47-.54-16.07-4.51-4.6-3.97-6.9-9.61-6.79-15.25Z"/><path class="h" d="M93.02,91.29c.63-2.46,2.93-4.13,5.47-3.97,7.01.45,13.76,3.91,18.21,10.04,4.44,6.12,5.63,13.62,3.9,20.42-.63,2.46-2.93,4.14-5.47,3.97-7.01-.46-13.76-3.91-18.21-10.04-4.45-6.13-5.64-13.63-3.9-20.43Z"/><path class="h" d="M116.8,72.77c.36-1.92,2.05-3.31,4-3.31,5.39,0,10.74,2.32,14.45,6.8,3.71,4.47,4.99,10.16,3.99,15.46-.36,1.92-2.05,3.31-4,3.31-5.39,0-10.74-2.32-14.45-6.8-3.71-4.48-4.99-10.17-3.99-15.46Z"/><path class="h" d="M149.85,105.16c.36-1.92,2.05-3.31,4-3.31,5.39,0,10.74,2.32,14.45,6.8,3.71,4.47,4.99,10.16,3.99,15.46-.36,1.92-2.05,3.31-4,3.31-5.39,0-10.74-2.32-14.45-6.8-3.71-4.48-4.99-10.17-3.99-15.46Z"/><path class="h" d="M145.74,50.56c1.07-2.12,3.51-3.18,5.79-2.52,6.3,1.83,11.77,6.34,14.59,12.83,2.82,6.48,2.4,13.56-.56,19.41-1.07,2.12-3.51,3.18-5.79,2.52-6.3-1.83-11.77-6.34-14.59-12.82-2.82-6.49-2.4-13.57.56-19.42Z"/><path class="h" d="M181.66,51.48c1.2-1.78,3.51-2.46,5.49-1.61,5.46,2.36,9.86,7.04,11.66,13.19,1.8,6.15.61,12.46-2.71,17.39-1.2,1.78-3.52,2.46-5.49,1.61-5.46-2.36-9.86-7.04-11.66-13.19-1.8-6.15-.62-12.47,2.71-17.39Z"/><path class="h" d="M218.37,57.98c1.91-1.07,4.31-.63,5.72,1.05,3.88,4.63,5.74,10.89,4.57,17.3-1.17,6.4-5.13,11.59-10.4,14.55-1.91,1.07-4.32.63-5.72-1.05-3.88-4.63-5.74-10.89-4.57-17.29,1.17-6.41,5.13-11.6,10.4-14.56Z"/><path class="h" d="M259.55,62.89c1.88-.22,3.66.94,4.22,2.75,1.55,5,.95,10.62-2.13,15.35-3.08,4.73-7.98,7.55-13.17,8.16-1.88.22-3.66-.94-4.22-2.75-1.55-5-.95-10.62,2.13-15.35,3.08-4.73,7.98-7.56,13.18-8.16Z"/><path class="h" d="M288.23,79.27c2.03-.01,3.79,1.43,4.18,3.43,1.07,5.51-.23,11.45-4.07,16.13s-9.39,7.13-15.01,7.17c-2.03.01-3.8-1.43-4.19-3.43-1.07-5.52.23-11.45,4.07-16.13,3.84-4.69,9.4-7.13,15.02-7.17Z"/><path class="h" d="M322.66,100.8c1.98.68,3.21,2.68,2.91,4.76-.83,5.74-4.11,11.07-9.44,14.34-5.33,3.26-11.57,3.76-17.06,1.89-1.99-.68-3.21-2.68-2.91-4.76.83-5.74,4.11-11.07,9.43-14.33,5.33-3.26,11.58-3.76,17.06-1.89Z"/><path class="h" d="M338.83,129.2c2.1.91,3.25,3.2,2.74,5.42-1.41,6.16-5.44,11.66-11.52,14.73-6.07,3.07-12.9,3.05-18.69.54-2.1-.91-3.25-3.2-2.74-5.43,1.41-6.16,5.44-11.66,11.52-14.73,6.08-3.07,12.9-3.06,18.69-.54Z"/><path class="h" d="M355.23,166.53c1.23,1.54,1.18,3.74-.1,5.23-3.55,4.11-8.84,6.67-14.7,6.56s-11.04-2.88-14.43-7.13c-1.23-1.54-1.18-3.74.1-5.23,3.55-4.11,8.84-6.67,14.7-6.56s11.05,2.88,14.43,7.13Z"/><path class="h" d="M341.83,210.27c.13,2.32-1.41,4.41-3.66,4.97-6.22,1.55-13.06.41-18.63-3.69-5.56-4.1-8.68-10.29-9.05-16.69-.13-2.32,1.41-4.41,3.66-4.97,6.22-1.54,13.06-.41,18.63,3.69,5.57,4.1,8.68,10.29,9.05,16.7Z"/><path class="h" d="M.14,190.02c-.56-2.36.65-4.79,2.86-5.77,6.12-2.72,13.35-2.79,19.82.42,6.46,3.21,10.79,9.01,12.33,15.52.56,2.36-.65,4.79-2.86,5.77-6.12,2.71-13.36,2.79-19.82-.42-6.47-3.21-10.79-9.01-12.33-15.53Z"/><path class="h" d="M8.92,156.48c-.61-1.86.2-3.91,1.92-4.85,4.75-2.6,10.58-3.15,16.01-1,5.43,2.15,9.31,6.54,10.99,11.69.61,1.86-.2,3.91-1.92,4.85-4.75,2.6-10.58,3.15-16.01,1s-9.31-6.54-10.99-11.69Z"/><path class="h" d="M5.07,115.49c-.53-2.49.79-5.02,3.15-6.01,6.5-2.72,14.12-2.62,20.85.91s11.14,9.73,12.61,16.63c.53,2.5-.79,5.03-3.15,6.01-6.51,2.71-14.12,2.62-20.85-.91-6.73-3.53-11.15-9.74-12.61-16.63Z"/><path class="h" d="M36.43,92.86c-.05-1.96,1.31-3.69,3.23-4.09,5.3-1.13,11.05.02,15.64,3.65,4.58,3.62,7.04,8.94,7.17,14.36.05,1.96-1.31,3.69-3.23,4.1-5.3,1.13-11.05-.03-15.63-3.65-4.59-3.62-7.04-8.95-7.17-14.36Z"/><path class="h" d="M47.11,55.76c.62-2.51,2.95-4.22,5.52-4.07,7.12.4,14.01,3.86,18.58,10.05,4.56,6.18,5.83,13.79,4.12,20.71-.62,2.51-2.95,4.22-5.53,4.08-7.12-.41-14.01-3.86-18.58-10.05-4.57-6.19-5.84-13.79-4.12-20.72Z"/><path class="h" d="M83.33,52.41c.45-1.91,2.2-3.24,4.16-3.16,5.43.24,10.71,2.8,14.25,7.46s4.58,10.44,3.35,15.73c-.45,1.92-2.2,3.25-4.17,3.16-5.43-.24-10.71-2.8-14.25-7.46-3.54-4.67-4.58-10.44-3.35-15.73Z"/><path class="h" d="M102.61,19.88c1.08-2.36,3.7-3.62,6.22-3,6.96,1.73,13.13,6.43,16.49,13.39,3.36,6.96,3.2,14.71.22,21.24-1.08,2.36-3.7,3.63-6.22,3-6.96-1.73-13.13-6.43-16.49-13.39-3.36-6.97-3.2-14.72-.22-21.24Z"/><path class="h" d="M132.43,3.83c.99-2.26,3.46-3.5,5.86-2.94,6.63,1.53,12.56,5.9,15.85,12.46,3.29,6.56,3.26,13.92.53,20.16-.99,2.26-3.46,3.5-5.86,2.94-6.63-1.54-12.56-5.9-15.85-12.46-3.3-6.56-3.26-13.92-.53-20.16Z"/><path class="h" d="M172.84,3.31c1.65-1.23,3.95-1.11,5.47.28,4.18,3.85,6.68,9.47,6.36,15.6-.32,6.12-3.38,11.45-7.94,14.85-1.65,1.23-3.95,1.11-5.47-.28-4.18-3.86-6.68-9.47-6.36-15.59.32-6.13,3.39-11.46,7.95-14.85Z"/><path class="h" d="M204.71,7.42c2.23-1.13,4.96-.5,6.49,1.48,4.2,5.49,6.02,12.74,4.35,20.01-1.66,7.26-6.45,13-12.62,16.12-2.23,1.13-4.97.5-6.49-1.49-4.2-5.49-6.01-12.74-4.35-20.01,1.66-7.27,6.45-13.01,12.62-16.12Z"/><path class="h" d="M234.87,1.1c1.84-1.49,4.49-1.47,6.3.06,4.99,4.23,8.14,10.57,8.07,17.62-.07,7.05-3.34,13.32-8.41,17.45-1.84,1.5-4.49,1.47-6.3-.06-4.99-4.23-8.13-10.57-8.06-17.62.07-7.06,3.34-13.33,8.42-17.46Z"/><path class="h" d="M270.26,21.7c2.3-.41,4.58.88,5.4,3.07,2.29,6.04,1.96,13.02-1.48,19.07-3.44,6.05-9.26,9.9-15.62,11.03-2.3.41-4.58-.88-5.41-3.07-2.28-6.04-1.96-13.02,1.48-19.07,3.44-6.06,9.27-9.91,15.62-11.04Z"/><path class="h" d="M301.63,26.29c2.33-.36,4.6,1,5.38,3.22,2.17,6.14,1.68,13.17-1.92,19.2-3.6,6.03-9.57,9.78-16.01,10.77-2.33.36-4.6-1-5.38-3.22-2.17-6.15-1.68-13.17,1.92-19.2,3.61-6.03,9.57-9.78,16.01-10.78Z"/><path class="h" d="M332.35,51.69c2.45.47,4.22,2.63,4.2,5.12-.04,6.89-3.03,13.7-8.77,18.41-5.74,4.71-13.01,6.31-19.77,5.01-2.45-.47-4.22-2.63-4.21-5.13.04-6.89,3.03-13.7,8.77-18.41s13.01-6.31,19.77-5.01Z"/><path class="h" d="M351.67,74.41c1.95-.04,3.65,1.32,4.05,3.23,1.1,5.27-.07,10.97-3.68,15.51s-8.9,6.95-14.28,7.06c-1.95.04-3.66-1.32-4.05-3.23-1.1-5.27.07-10.97,3.68-15.5s8.91-6.96,14.29-7.06Z"/><path class="h" d="M375.08,96.94c1.91.42,3.25,2.15,3.18,4.09-.17,5.38-2.66,10.66-7.25,14.22-4.59,3.56-10.32,4.66-15.58,3.5-1.91-.42-3.25-2.15-3.19-4.1.17-5.39,2.66-10.66,7.25-14.22s10.32-4.67,15.59-3.5Z"/><path class="h" d="M396.53,129.71c1.72,1.44,2.18,3.91,1.09,5.87-3.02,5.41-8.35,9.49-14.93,10.71s-13-.68-17.76-4.65c-1.72-1.44-2.18-3.91-1.09-5.87,3.03-5.41,8.35-9.49,14.92-10.7,6.58-1.22,13.01.68,17.77,4.65Z"/><path class="h" d="M397.92,163.07c1.59,1.21,2.1,3.38,1.21,5.17-2.47,4.93-7.03,8.77-12.82,10.12s-11.58-.07-15.98-3.41c-1.59-1.21-2.1-3.39-1.21-5.17,2.47-4.93,7.03-8.77,12.82-10.12s11.59.07,15.98,3.41Z"/><path class="h" d="M394.88,207.81c.45,2.34-.84,4.67-3.05,5.54-6.12,2.41-13.22,2.17-19.43-1.25-6.21-3.42-10.2-9.29-11.44-15.75-.45-2.34.84-4.67,3.05-5.55,6.12-2.41,13.22-2.17,19.43,1.25,6.21,3.42,10.21,9.3,11.44,15.75Z"/></g></g></svg>