<?xml version="1.0" encoding="UTF-8"?><svg id="b" xmlns="http://www.w3.org/2000/svg" viewBox="0 0 399.56 377.05"><defs><style>.d{fill:#93c792;}</style></defs><g id="c"><path class="d" d="M376.4,262.38c-1.43-3.9-3.99-7.34-7.65-10.27-5.09-4.09-12.28-7.23-21.99-9.61-17.46-4.26-40.61-5.37-63-6.43-30.32-1.44-59.39-2.82-72.82-11.21-4.86-3.04-7.67-6.99-7.74-12.2v-14.8c0-2.83-.2-5.62-.55-8.37.34-.49.55-1.08.55-1.71,0-36.98,22.21-69.64,56.59-83.22,1.54-.61,2.3-2.36,1.69-3.9-.46-1.15-1.55-1.9-2.8-1.9-.37,0-.74.08-1.09.22-17.61,6.95-32.64,18.89-43.46,34.51-8.24,11.89-13.59,25.33-15.79,39.47-9.88-24.39-33.81-41.65-61.7-41.65-1.65,0-3,1.34-3,3s1.35,3,3,3c33.39,0,60.56,27.16,60.56,60.55v14.52h0s-.01.05-.01.07c0,11.54-19.69,19.31-54.04,21.34-12.39.52-24.88.84-37.35,1.04-4.59.08-9.17.14-13.74.19-11.42.12-22.78.17-33.98.23-14.27.07-28.94.13-43.52.35.55,2.01,1.12,4,1.73,5.98,13.59-.19,27.28-.27,40.62-.33-12.23,3.87-22.81,9.82-33.88,18.82.8,1.92,1.64,3.81,2.51,5.69,19.43-16.21,36.54-22.24,65.21-24.29.51-.03.97-.21,1.37-.46,4.59-.05,9.18-.11,13.78-.19,12.53-.2,25.08-.51,37.55-1.04,10.61-.62,19.41-1.74,26.71-3.22-13.36,6.16-30.77,12.47-50.22,19.27-33.83,11.82-66.14,23.12-78.79,37.45,1.15,1.7,2.34,3.38,3.55,5.05,6.89-8.84,24.29-17.15,44.31-24.92-.34,3.31-.02,7.98.45,14.65.63,9.17,1.46,36.76.89,54.96,1.92,1.34,3.87,2.65,5.85,3.92.84-18.17-.06-49.38-.76-59.31-.54-7.78-.85-13.03-.22-15.04l.09-.3.18-.26c.28-.39.43-.83.5-1.27,8.53-3.18,17.36-6.27,25.93-9.26,32.24-11.27,61.22-21.41,74.15-33.84-3.4,17.89-14.04,33.45-25.78,47.58-.01.01-.03.03-.04.05-4.01,4.82-8.16,9.48-12.18,14.01-7.56,8.5-19.27,24.53-28.48,38.98-7.54,11.84-12.91,21.79-15.62,28.81,1.74.88,3.5,1.73,5.28,2.56,6.11-16.55,32.3-54,43.3-66.37,3.54-3.97,7.24-8.14,10.91-12.51,21.39,11.5,36.82,82.85,38.55,91.17.42,2.02.78,3.71,1.1,5.11l5.58-.46c.15-.01.31-.02.46-.04-.34-1.39-.75-3.33-1.27-5.84-1.8-8.66-6.85-31.12-14.73-52.45-8.15-22.07-17.02-36.49-25.86-42.14,10.78-13.4,20.66-28.61,24.38-45.91,7.2,19.33,23.64,34.97,50.02,47.64.35.17.72.34,1.08.51.02.39.04.79.05,1.18v.02c.24,5.13.15,10.62.07,15.46v.16c-.1,6.57-.2,13.37.34,19.95.55,7.6,5.4,45.29,6.69,52.84,0,.02.01.03.01.05.12-.04.25-.08.37-.12l5.38-1.86c-1.42-8.95-5.95-44.21-6.47-51.38-.52-6.41-.42-13.09-.32-19.55v-.78c.06-3.31.11-6.74.06-10.12-.01-1.11-.03-2.12-.06-3.08.92.4,1.86.8,2.83,1.21,6.45,2.7,12.42,4.88,17.68,6.8l.19.07c6.32,2.31,11.78,4.3,14.18,5.86,4.98,3.19,17.78,13.4,38.03,30.33l4.22-4.07.12-.12c-25.8-21.58-35.51-28.87-39.12-31.17-2.92-1.91-8.1-3.81-15.28-6.44l-.26-.09c-6.55-2.39-13.98-5.1-21.8-8.55-.61-.26-1.19-.53-1.78-.79-.64-.29-1.28-.58-1.9-.87-.36-.17-.72-.34-1.07-.5-.65-.31-1.29-.62-1.93-.93-1.32-.64-2.62-1.28-3.89-1.94-21.07-10.94-34.6-24.09-41.12-40.01,4.07,2.46,9.66,4.73,17.38,6.5,15.56,3.57,35.68,4.57,57.04,5.59.4.59.97,1.02,1.65,1.22,32.48,9.37,44.82,27.07,61.9,51.58,1.94,2.78,3.92,5.62,5.98,8.53,1.3-1.65,2.56-3.33,3.79-5.03-1.66-2.35-3.26-4.66-4.85-6.94-14.38-20.63-26.23-37.61-50.12-48.43,16.3.95,32.07,2.33,44.58,5.39,18.06,4.42,26.47,11.45,26.47,22.15,0,.41.08.8.23,1.16l4.36-9.26Z"/><path class="d" d="M100.93,75.61c1.96.09,3.72-1.25,4.17-3.16,1.23-5.29.19-11.07-3.35-15.73-3.54-4.67-8.82-7.23-14.25-7.46-1.96-.09-3.72,1.25-4.16,3.16-1.23,5.29-.19,11.07,3.35,15.73,3.54,4.66,8.82,7.22,14.25,7.46ZM69.81,86.52c2.58.15,4.91-1.57,5.53-4.08,1.71-6.92.44-14.53-4.12-20.71-4.57-6.19-11.46-9.65-18.58-10.05-2.58-.15-4.9,1.57-5.52,4.08-1.71,6.92-.44,14.53,4.12,20.72,4.56,6.18,11.45,9.64,18.57,10.05ZM85.16,114.25c-4.6-3.97-10.51-5.44-16.07-4.51-2.01.34-3.5,2.06-3.55,4.1-.11,5.63,2.19,11.27,6.79,15.25,4.59,3.97,10.51,5.43,16.07,4.51,2.01-.34,3.51-2.06,3.55-4.1.11-5.63-2.19-11.27-6.79-15.25ZM120.8,69.47c-1.95,0-3.63,1.39-4,3.31-1,5.3.28,10.98,3.99,15.46,3.71,4.47,9.05,6.79,14.45,6.8,1.95,0,3.64-1.39,4-3.31,1-5.3-.28-10.98-3.99-15.46-3.71-4.48-9.06-6.8-14.45-6.8ZM119.32,54.51c2.52.63,5.14-.64,6.22-3,2.98-6.53,3.14-14.28-.22-21.24-3.36-6.97-9.53-11.67-16.49-13.39-2.52-.62-5.14.64-6.22,3-2.98,6.52-3.14,14.28.22,21.24,3.36,6.96,9.53,11.66,16.49,13.39ZM84.66,191.7c-5.65-5.33-13.12-7.52-20.26-6.64-2.59.32-4.59,2.44-4.75,5.04-.46,7.19,2.17,14.51,7.82,19.84,5.65,5.32,13.11,7.52,20.26,6.64,2.59-.32,4.59-2.44,4.76-5.04.45-7.19-2.17-14.51-7.82-19.84ZM22.82,184.67c-6.47-3.21-13.71-3.14-19.82-.42-2.21.98-3.42,3.41-2.86,5.77,1.54,6.51,5.86,12.32,12.33,15.53,6.46,3.21,13.7,3.13,19.82.42,2.22-.98,3.42-3.42,2.86-5.77-1.54-6.52-5.87-12.32-12.33-15.52ZM62.47,106.78c-.13-5.42-2.59-10.74-7.17-14.36-4.59-3.62-10.33-4.78-15.64-3.65-1.92.41-3.28,2.13-3.23,4.09.13,5.42,2.58,10.74,7.17,14.36,4.58,3.62,10.33,4.77,15.63,3.65,1.92-.41,3.28-2.13,3.23-4.1ZM148.81,36.45c2.4.56,4.87-.68,5.86-2.94,2.73-6.24,2.77-13.6-.53-20.16-3.3-6.56-9.22-10.93-15.85-12.46-2.4-.55-4.87.68-5.86,2.94-2.73,6.24-2.77,13.6.53,20.16,3.29,6.56,9.22,10.92,15.85,12.46ZM26.85,150.63c-5.43-2.15-11.26-1.6-16.01,1-1.72.94-2.53,2.98-1.92,4.85,1.68,5.15,5.56,9.54,10.99,11.69,5.43,2.15,11.26,1.6,16.01-1,1.72-.94,2.53-2.99,1.92-4.85-1.68-5.15-5.56-9.54-10.99-11.69ZM29.07,110.39c-6.73-3.53-14.35-3.62-20.85-.91-2.35.98-3.68,3.51-3.15,6.01,1.47,6.89,5.88,13.1,12.61,16.63,6.73,3.53,14.35,3.62,20.85.91,2.36-.98,3.68-3.51,3.15-6.01-1.47-6.89-5.88-13.1-12.61-16.63ZM202.93,45.03c6.17-3.12,10.96-8.86,12.62-16.12,1.66-7.27-.15-14.52-4.35-20.01-1.52-1.99-4.25-2.61-6.49-1.48-6.17,3.11-10.96,8.86-12.62,16.12-1.66,7.26.15,14.51,4.35,20.01,1.52,1.99,4.25,2.61,6.49,1.49ZM308.02,80.24c6.76,1.31,14.03-.3,19.77-5.01,5.74-4.71,8.73-11.53,8.77-18.41.01-2.49-1.76-4.65-4.2-5.12-6.76-1.31-14.03.3-19.77,5.01-5.74,4.71-8.73,11.52-8.76,18.41-.01,2.49,1.76,4.65,4.21,5.13ZM84.38,148.11c-7-3.49-14.83-3.43-21.46-.5-2.4,1.06-3.71,3.69-3.11,6.24,1.65,7.06,6.32,13.35,13.31,16.84,6.99,3.49,14.82,3.43,21.46.5,2.4-1.06,3.71-3.69,3.11-6.25-1.65-7.06-6.32-13.35-13.31-16.84ZM333.7,96.98c.4,1.91,2.11,3.27,4.05,3.23,5.38-.11,10.67-2.53,14.28-7.06,3.61-4.54,4.78-10.24,3.68-15.51-.4-1.91-2.1-3.26-4.05-3.23-5.38.11-10.67,2.52-14.29,7.06-3.61,4.54-4.78,10.24-3.68,15.5ZM261.63,80.99c3.08-4.73,3.68-10.35,2.13-15.35-.56-1.81-2.34-2.97-4.22-2.75-5.2.6-10.1,3.43-13.18,8.16-3.08,4.73-3.68,10.35-2.13,15.35.56,1.81,2.34,2.97,4.22,2.75,5.2-.6,10.1-3.43,13.17-8.16ZM363.84,135.76c-1.1,1.96-.64,4.43,1.09,5.87,4.76,3.97,11.19,5.87,17.76,4.65,6.58-1.22,11.9-5.29,14.92-10.71,1.09-1.96.64-4.43-1.09-5.87-4.76-3.97-11.19-5.87-17.77-4.65-6.57,1.22-11.9,5.29-14.92,10.7ZM289.08,59.48c6.44-1,12.4-4.75,16.01-10.77,3.61-6.03,4.09-13.06,1.92-19.2-.79-2.22-3.05-3.58-5.38-3.22-6.44.99-12.4,4.75-16.01,10.78-3.6,6.03-4.09,13.05-1.92,19.2.78,2.23,3.05,3.58,5.38,3.22ZM234.52,36.18c1.81,1.53,4.46,1.56,6.3.06,5.08-4.13,8.34-10.4,8.41-17.45.07-7.06-3.07-13.4-8.07-17.62-1.81-1.53-4.46-1.56-6.3-.06-5.08,4.13-8.35,10.4-8.42,17.46-.07,7.05,3.07,13.39,8.06,17.62ZM258.56,54.88c6.36-1.13,12.18-4.98,15.62-11.03,3.44-6.06,3.76-13.03,1.48-19.07-.83-2.19-3.1-3.48-5.4-3.07-6.36,1.13-12.18,4.98-15.62,11.04-3.44,6.05-3.76,13.03-1.48,19.07.83,2.19,3.1,3.48,5.41,3.07ZM248.13,123.88c-6.27.6-12.24,3.88-16.06,9.5-3.82,5.61-4.68,12.37-2.94,18.42.63,2.19,2.74,3.63,5.02,3.41,6.27-.6,12.24-3.89,16.06-9.5,3.82-5.62,4.69-12.37,2.94-18.43-.63-2.19-2.74-3.63-5.01-3.41ZM260.54,152.78c6.04.79,12.37-1.01,17.18-5.46,4.82-4.46,7.09-10.64,6.76-16.72-.12-2.2-1.8-4.01-3.98-4.3-6.03-.8-12.37,1-17.18,5.47-4.81,4.46-7.09,10.63-6.76,16.71.12,2.2,1.8,4.01,3.98,4.3ZM288.35,98.83c3.84-4.69,5.14-10.62,4.07-16.13-.39-2-2.15-3.44-4.18-3.43-5.62.04-11.18,2.48-15.02,7.17-3.84,4.68-5.14,10.62-4.07,16.13.39,2,2.15,3.44,4.19,3.43,5.62-.04,11.18-2.48,15.01-7.17ZM164.57,172.71c-5.75-2.17-11.87-1.49-16.81,1.32-1.79,1.02-2.61,3.18-1.93,5.13,1.85,5.38,6.01,9.93,11.75,12.1,5.74,2.17,11.86,1.49,16.81-1.32,1.79-1.02,2.61-3.18,1.93-5.13-1.86-5.38-6.01-9.93-11.75-12.1ZM330.06,149.35c6.08-3.07,10.11-8.58,11.52-14.73.51-2.23-.65-4.51-2.74-5.42-5.79-2.52-12.62-2.53-18.69.54-6.07,3.07-10.11,8.57-11.52,14.73-.51,2.23.65,4.51,2.74,5.43,5.79,2.52,12.62,2.53,18.69-.54ZM302.49,159.22c-5.51-3.17-12.34-3.95-18.77-1.56-6.42,2.39-11.08,7.45-13.18,13.45-.76,2.17.14,4.59,2.14,5.74,5.51,3.17,12.34,3.95,18.77,1.56,6.43-2.39,11.08-7.45,13.18-13.45.76-2.17-.14-4.59-2.14-5.74ZM325.57,105.56c.3-2.08-.93-4.08-2.91-4.76-5.48-1.87-11.73-1.38-17.06,1.89-5.33,3.26-8.61,8.6-9.43,14.33-.3,2.08.93,4.08,2.91,4.76,5.49,1.87,11.73,1.37,17.06-1.89,5.33-3.26,8.61-8.6,9.44-14.34ZM250.73,188.06c-2.09.25-3.71,1.96-3.85,4.06-.39,5.8,1.72,11.72,6.26,16.04,4.55,4.32,10.57,6.11,16.35,5.42,2.09-.25,3.71-1.96,3.85-4.06.39-5.8-1.72-11.72-6.26-16.04-4.54-4.31-10.57-6.1-16.34-5.42ZM295.58,196.83c-2.5-1.72-5.51-2.12-8.21-1.35-.98.28-1.63,1.22-1.53,2.23.25,2.8,1.71,5.47,4.2,7.19,2.5,1.72,5.51,2.12,8.22,1.35.98-.28,1.62-1.22,1.53-2.23-.25-2.8-1.7-5.47-4.2-7.19ZM340.79,159.4c-5.86-.11-11.15,2.44-14.7,6.56-1.29,1.49-1.33,3.69-.1,5.23,3.39,4.25,8.57,7.01,14.43,7.13,5.86.12,11.15-2.44,14.7-6.56,1.29-1.49,1.33-3.69.1-5.23-3.39-4.25-8.57-7.02-14.43-7.13ZM397.92,163.07c-4.39-3.34-10.19-4.76-15.98-3.41-5.79,1.35-10.35,5.19-12.82,10.12-.89,1.79-.39,3.97,1.21,5.17,4.4,3.33,10.19,4.76,15.98,3.41,5.79-1.35,10.36-5.19,12.82-10.12.89-1.79.38-3.96-1.21-5.17ZM120.6,117.79c1.74-6.8.55-14.3-3.9-20.42-4.45-6.13-11.21-9.59-18.21-10.04-2.54-.16-4.84,1.51-5.47,3.97-1.74,6.8-.55,14.3,3.9,20.43,4.44,6.12,11.2,9.58,18.21,10.04,2.54.17,4.84-1.51,5.47-3.97ZM255.64,168.72c.28-2.06-.95-4.03-2.92-4.68-5.44-1.81-11.62-1.26-16.87,2.01-5.24,3.27-8.45,8.58-9.22,14.27-.28,2.06.95,4.03,2.92,4.69,5.45,1.8,11.62,1.26,16.87-2.01,5.25-3.28,8.45-8.59,9.22-14.27ZM332.78,193.58c-5.56-4.1-12.4-5.23-18.63-3.69-2.25.56-3.8,2.65-3.66,4.97.37,6.4,3.49,12.6,9.05,16.69,5.57,4.1,12.41,5.24,18.63,3.69,2.25-.56,3.79-2.65,3.66-4.97-.37-6.4-3.48-12.6-9.05-16.7ZM378.26,101.04c.06-1.95-1.28-3.67-3.18-4.09-5.27-1.16-10.99-.06-15.59,3.5-4.59,3.56-7.07,8.83-7.25,14.22-.06,1.95,1.28,3.68,3.19,4.1,5.27,1.16,10.99.06,15.58-3.5,4.59-3.56,7.08-8.84,7.25-14.22ZM383.43,192.06c-6.21-3.42-13.31-3.65-19.43-1.25-2.22.87-3.5,3.21-3.05,5.55,1.24,6.46,5.24,12.33,11.44,15.75,6.21,3.42,13.32,3.66,19.43,1.25,2.21-.87,3.5-3.21,3.05-5.54-1.24-6.46-5.23-12.33-11.44-15.75ZM172.28,124.11c1-5.3-.28-10.98-3.99-15.46-3.71-4.48-9.06-6.8-14.45-6.8-1.95,0-3.63,1.39-4,3.31-1,5.3.28,10.98,3.99,15.46,3.71,4.47,9.05,6.79,14.45,6.8,1.95,0,3.64-1.39,4-3.31ZM160.35,150.97c-3.38.45-6.2,2.38-7.89,5.06-.61.97-.44,2.24.4,3.02,2.32,2.15,5.55,3.29,8.93,2.84,3.38-.44,6.2-2.38,7.89-5.06.61-.97.44-2.24-.4-3.02-2.32-2.15-5.55-3.29-8.93-2.84ZM223.71,99.79c-3.16.23-6.19,1.82-8.16,4.6-1.98,2.78-2.49,6.16-1.67,9.22.29,1.11,1.34,1.85,2.48,1.77,3.16-.23,6.19-1.82,8.17-4.6,1.98-2.78,2.48-6.16,1.67-9.22-.29-1.11-1.34-1.85-2.48-1.77ZM130.36,138.75c-6.58-2.88-13.77-2.47-19.73.52-2.15,1.08-3.24,3.56-2.57,5.87,1.84,6.4,6.41,11.97,13,14.85,6.58,2.88,13.77,2.47,19.72-.52,2.16-1.08,3.24-3.56,2.57-5.88-1.84-6.4-6.42-11.97-12.99-14.85ZM118.43,186.11c-2.55-.46-5.08.97-6,3.39-2.55,6.69-2.21,14.43,1.59,21.16,3.8,6.72,10.25,11.01,17.3,12.29,2.55.46,5.08-.97,6.01-3.39,2.55-6.7,2.21-14.43-1.58-21.16-3.8-6.73-10.25-11.02-17.3-12.29ZM159.76,82.8c2.28.66,4.72-.4,5.79-2.52,2.96-5.86,3.38-12.93.56-19.41-2.82-6.49-8.29-11-14.59-12.83-2.28-.66-4.72.4-5.79,2.52-2.96,5.85-3.38,12.93-.56,19.42,2.82,6.48,8.29,11,14.59,12.82ZM191.56,96.26c-2.21-1.05-4.87-.37-6.31,1.61-3.98,5.47-5.58,12.61-3.77,19.67,1.8,7.06,6.62,12.56,12.73,15.46,2.21,1.05,4.87.37,6.31-1.61,3.98-5.47,5.57-12.61,3.77-19.67-1.8-7.07-6.62-12.57-12.74-15.46ZM218.25,90.88c5.27-2.96,9.23-8.15,10.4-14.55,1.17-6.41-.69-12.67-4.57-17.3-1.4-1.68-3.81-2.12-5.72-1.05-5.27,2.95-9.23,8.15-10.4,14.56-1.17,6.4.69,12.66,4.57,17.29,1.4,1.68,3.81,2.12,5.72,1.05ZM184.67,19.19c.32-6.13-2.18-11.74-6.36-15.6-1.51-1.39-3.82-1.51-5.47-.28-4.56,3.4-7.63,8.73-7.95,14.85-.32,6.12,2.18,11.74,6.36,15.59,1.51,1.4,3.82,1.52,5.47.28,4.56-3.4,7.63-8.73,7.94-14.85ZM190.61,82.06c1.98.85,4.29.18,5.49-1.61,3.32-4.93,4.51-11.24,2.71-17.39-1.8-6.15-6.2-10.83-11.66-13.19-1.97-.85-4.29-.18-5.49,1.61-3.32,4.93-4.51,11.24-2.71,17.39,1.8,6.15,6.2,10.83,11.66,13.19Z"/></g></svg>